<?xml version="1.0" encoding="utf-8"?>
<svg xmlns="http://www.w3.org/2000/svg" xmlns:xlink="http://www.w3.org/1999/xlink">
	<defs>
		<style>
			g {
				display: none;
			}

			g:target {
				display: inline;
			}
		</style>
	</defs>
	
	<svg viewBox="0 0 32 32" fill="none">
		<g id="sale">
			<line x1="18.168" y1="10.2684" x2="13.5434" y2="22.4757" stroke="white" stroke-width="2.1" stroke-linecap="round"/>
			<path fill-rule="evenodd" clip-rule="evenodd" d="M10.4027 16.7611C12.2913 16.7611 13.8223 15.2301 13.8223 13.3415C13.8223 11.4529 12.2913 9.92188 10.4027 9.92188C8.51408 9.92188 6.98306 11.4529 6.98306 13.3415C6.98306 15.2301 8.51408 16.7611 10.4027 16.7611ZM10.3355 14.73C11.0743 14.73 11.6731 14.1311 11.6731 13.3924C11.6731 12.6536 11.0743 12.0547 10.3355 12.0547C9.59671 12.0547 8.99782 12.6536 8.99782 13.3924C8.99782 14.1311 9.59671 14.73 10.3355 14.73Z" fill="white"/>
			<path fill-rule="evenodd" clip-rule="evenodd" d="M21.5972 22.3147C23.4858 22.3147 25.0169 20.7837 25.0169 18.8951C25.0169 17.0065 23.4858 15.4755 21.5972 15.4755C19.7086 15.4755 18.1776 17.0065 18.1776 18.8951C18.1776 20.7837 19.7086 22.3147 21.5972 22.3147ZM21.53 20.2837C22.2688 20.2837 22.8676 19.6848 22.8676 18.946C22.8676 18.2072 22.2688 17.6083 21.53 17.6083C20.7912 17.6083 20.1923 18.2072 20.1923 18.946C20.1923 19.6848 20.7912 20.2837 21.53 20.2837Z" fill="white"/>
		</g>
	</svg>

	
	<svg viewBox="0 0 17 15" fill="none">
		<g id="crown">
			<path fill-rule="evenodd" clip-rule="evenodd" d="M1.17018 1.34039C0.905615 1.07834 0.462525 1.32266 0.542934 1.68625L3.27099 14.0218C3.3088 14.1928 3.46039 14.3145 3.63551 14.3145H12.9026C13.0777 14.3145 13.2293 14.1928 13.2671 14.0218L15.9952 1.68625C16.0756 1.32266 15.6325 1.07834 15.3679 1.34039L12.4567 4.22388C12.3528 4.32682 12.1853 4.32682 12.0814 4.22388L8.53178 0.708062C8.38628 0.563947 8.15184 0.563947 8.00634 0.708062L4.45671 4.22388C4.35278 4.32682 4.18533 4.32682 4.0814 4.22388L1.17018 1.34039ZM5.81572 11.1145C5.6979 11.1145 5.60239 11.21 5.60239 11.3278V11.9678C5.60239 12.0857 5.6979 12.1812 5.81572 12.1812H10.7224C10.8402 12.1812 10.9357 12.0857 10.9357 11.9678V11.3278C10.9357 11.21 10.8402 11.1145 10.7224 11.1145H5.81572Z" fill="white"/>
		</g>
	</svg>

	
	<svg viewBox="0 0 20 23" fill="none">
		<g id="roket">
			<path fill-rule="evenodd" clip-rule="evenodd" d="M14.7563 2.70198C12.2242 3.23779 10.0339 4.82418 8.73626 7.07178L6.87523 10.2952L4.10688 11.037C4.0164 11.0612 3.94528 11.1311 3.91952 11.2212L3.43546 12.9134C3.39273 13.0627 3.48619 13.2168 3.63838 13.2479L5.00856 13.5283L10.5511 16.7283L11.479 17.7748C11.5821 17.891 11.7623 17.8949 11.8703 17.7832L13.0937 16.5179C13.1588 16.4506 13.1838 16.354 13.1596 16.2635L12.4178 13.4952L14.2788 10.2718C15.5765 8.02418 15.8552 5.33417 15.0532 2.87341C15.0125 2.74862 14.8847 2.67481 14.7563 2.70198ZM11.2465 9.12389C11.7567 9.41845 12.4091 9.24364 12.7036 8.73347C12.9982 8.22329 12.8234 7.57092 12.3132 7.27637C11.803 6.98182 11.1506 7.15662 10.8561 7.6668C10.5615 8.17698 10.7363 8.82934 11.2465 9.12389Z" fill="white"/>
			<path d="M5.18578 19.9604C6.40463 19.6706 7.45483 18.8913 8.08458 17.8005L8.4647 17.1421C8.53834 17.0146 8.49464 16.8515 8.3671 16.7779L6.0577 15.4445C5.93015 15.3709 5.76706 15.4146 5.69342 15.5421L5.3133 16.2005C4.68354 17.2913 4.53374 18.5904 4.89216 19.7909C4.9297 19.9167 5.0581 19.9908 5.18578 19.9604Z" fill="white"/>
		</g>
	</svg>

	
	<svg viewBox="0 0 11 11" fill="none">
		<g id="times">
			<path d="M1.13137 0.15979L10.1823 9.21076L9.05097 10.3421L2.6974e-07 1.29116L1.13137 0.15979Z" fill="white"/>
			<path d="M10.1823 1.29116L1.13137 10.3421L0 9.21076L9.05097 0.15979L10.1823 1.29116Z" fill="white"/>
		</g>
	</svg>


	<svg viewBox="0 0 22 18" fill="none">
		<g id="bar">
			<path fill-rule="evenodd" clip-rule="evenodd" d="M22 2L-1.74846e-07 2L0 0L22 1.9233e-06L22 2Z" fill="white"/>
			<path fill-rule="evenodd" clip-rule="evenodd" d="M22 10L6 10L6 8L22 8L22 10Z" fill="white"/>
			<path fill-rule="evenodd" clip-rule="evenodd" d="M22 18L-1.74846e-07 18L0 16L22 16L22 18Z" fill="white"/>
		</g>
	</svg>

	<svg viewBox="0 0 55 27" fill="none">
		<g id="logo">
			<path d="M48.0601 0.824005H41.6196V5.74372L48.0601 10.6634V0.824005Z" fill="white"/>
			<path d="M50.2821 26.9108C49.6237 26.3677 47.8367 24.7766 44.7348 22.0118C40.0184 17.8093 30.2709 9.12062 28.5146 7.9394C28.0489 7.73523 27.5302 7.77951 27.3207 7.89807C24.5805 9.44877 7.26688 24.755 5.49425 26.5802L0 22.0186C1.17465 20.6593 19.7357 4.08234 23.6491 1.86749C26.0831 0.488981 29.3499 0.457987 31.9702 1.78975C33.3505 2.48983 37.1523 5.73291 49.6564 16.877C52.2093 19.1524 54.4144 21.1173 55 21.6019L50.2821 26.9108Z" fill="#F0C630"/>
		</g>
	</svg>

	<svg viewBox="0 0 12 2" fill="none">
		<g id="minus">
			<rect y="2" width="2" height="12" transform="rotate(-90 0 2)" fill="black"/>
		</g>
	</svg>

	
	<svg viewBox="0 0 12 12" fill="none">
		<g id="plus">
			<path d="M7 12H5L5 0L7 1.74846e-07L7 12Z" fill="black"/>
			<path d="M8.74228e-08 7L0 5L12 5V7L8.74228e-08 7Z" fill="black"/>
		</g>
	</svg>

	<svg viewBox="0 0 16 10" fill="none" xmlns="http://www.w3.org/2000/svg">
		<g id="angle-down">
			<path d="M1 1L8 8L15 1" stroke="black" stroke-width="2"/>
		</g>
	</svg>


	<svg viewBox="0 0 16 10" fill="none">
		<g id="angle-up">
			<path d="M1 9L8 2L15 9" stroke="black" stroke-width="2"/>
		</g>
		
	</svg>


	<svg viewBox="0 0 6 12" fill="none">
		<g id="distance">
			<path fill-rule="evenodd" clip-rule="evenodd" d="M3.17804 3.13325L3.23738 3.14498C3.29169 3.14884 3.34553 3.16681 3.39254 3.19979L4.80436 4.1904C5.03291 4.35075 5.16772 4.60439 5.16772 4.87399V6.24194C5.16772 6.39848 5.03391 6.52539 4.86883 6.52539C4.70376 6.52539 4.56994 6.39848 4.56994 6.24194V4.87399C4.56994 4.78412 4.52499 4.69958 4.44881 4.64613L3.7308 4.142L3.73132 6.24194C3.73095 6.3952 3.66588 6.54773 3.53766 6.65943L1.93332 8.05704C1.84536 8.13367 1.78363 8.23352 1.75607 8.34372L1.17962 10.6488C1.10343 10.9534 0.781265 11.1418 0.460031 11.0696C0.138798 10.9973 -0.0598545 10.6918 0.0163307 10.3871L0.592784 8.08208C0.675464 7.75146 0.860661 7.45191 1.12452 7.22205L1.93985 6.51109L1.93999 4.04245C1.93999 3.85306 2.03972 3.67618 2.20579 3.57101L2.75636 3.22231C2.88323 3.14195 3.03394 3.11255 3.17804 3.13325ZM2.73078 8.0688L3.60025 7.35424C3.64335 7.38103 3.68325 7.41345 3.71865 7.45123L3.76821 7.51191L5.676 10.2015C5.86027 10.4613 5.78758 10.8136 5.51364 10.9883C5.25928 11.1506 4.92084 11.1028 4.72625 10.8871L4.684 10.8344L2.77621 8.14475C2.75878 8.12018 2.74366 8.09479 2.73078 8.0688L3.60025 7.35424L2.73078 8.0688ZM1.67321 4.94537V5.69595L0.978016 6.26973C0.86728 6.36102 0.705824 6.36128 0.595247 6.27723L0.556353 6.24178C0.460086 6.13676 0.459812 5.98363 0.548436 5.87876L0.585833 5.84189L1.67321 4.94537ZM1.85017 0.804077C2.51045 0.804077 3.04572 1.3117 3.04572 1.93788C3.04572 2.56407 2.51045 3.07169 1.85017 3.07169C1.18988 3.07169 0.654609 2.56407 0.654609 1.93788C0.654609 1.3117 1.18988 0.804077 1.85017 0.804077Z" fill="black"/>
		</g>

	</svg>
	</svg>
	
	
	
	
	
	
	
